<?xml version="1.0" encoding="UTF-8" standalone="no"?>
<!DOCTYPE svg PUBLIC "-//W3C//DTD SVG 1.1//EN"
 "http://www.w3.org/Graphics/SVG/1.1/DTD/svg11.dtd">
<!-- Generated by graphviz version 10.0.1 (0)
 -->
<!-- Title: G Pages: 1 -->
<svg width="142pt" height="62pt"
 viewBox="0.00 0.00 141.70 61.78" xmlns="http://www.w3.org/2000/svg" xmlns:xlink="http://www.w3.org/1999/xlink">
<g id="graph0" class="graph" transform="scale(1 1) rotate(0) translate(21.6 40.18)">
<title>G</title>
<polygon fill="#111111" stroke="none" points="-21.6,21.6 -21.6,-40.18 120.1,-40.18 120.1,21.6 -21.6,21.6"/>
<!-- datakeys.ts -->
<g id="node1" class="node">
<title>datakeys.ts</title>
<path fill="none" stroke="#cfffac" d="M92.31,-18.58C92.31,-18.58 6.19,-18.58 6.19,-18.58 3.1,-18.58 0,-15.48 0,-12.39 0,-12.39 0,-6.19 0,-6.19 0,-3.1 3.1,0 6.19,0 6.19,0 92.31,0 92.31,0 95.4,0 98.5,-3.1 98.5,-6.19 98.5,-6.19 98.5,-12.39 98.5,-12.39 98.5,-15.48 95.4,-18.58 92.31,-18.58"/>
<text text-anchor="middle" x="49.25" y="-1.28" font-family="Arial" font-size="14.00" fill="#cfffac">datakeys.ts</text>
</g>
</g>
</svg>
